PathFileType	4	(X/Y/Z)	S1_nor_med_right & left.trc
DataRate	CameraRate	NumFrames	NumMarkers	Units	OrigDataRate	OrigDataStartFrame	OrigNumFrames
250.00	250.00	8	18	mm	250.00	6298	16793
Frame#	Time	c7	r_should	l_should	clavicle	r_upa	r_elb_l	r_elb_m	r_low	r_wri_l	r_wri_m	r_met	l_upa	l_elb_l	l_elb_m	l_low	l_wri_l	l_wri_m	l_met
	X1	Y1	Z1	X2	Y2	Z2	X3	Y3	Z3	X4	Y4	Z4	X5	Y5	Z5	X6	Y6	Z6	X7	Y7	Z7	X8	Y8	Z8	X9	Y9	Z9	X10	Y10	Z10	X11	Y11	Z11	X12	Y12	Z12	X13	Y13	Z13	X14	Y14	Z14	X15	Y15	Z15	X16	Y16	Z16	X17	Y17	Z17	X18	Y18	Z18
6298	25.18800	897.26208	1418.61438	144.23611	995.40570	1332.83691	305.68201	926.96216	1372.28699	-60.87669	1031.55872	1300.05737	104.33704	999.21985	1120.96973	341.15491	1024.47192	1024.85388	344.41605	959.41345	1003.97729	267.21115	1024.12695	889.79761	311.72461	1113.78003	827.95654	315.87814	1086.61792	820.78571	244.30196	1100.29004	752.68982	327.85608	925.70642	1148.87158	-107.63512	935.06561	1062.73535	-121.50900	875.44128	1037.69043	-39.83441	885.52917	921.80505	-134.20255	957.50732	827.67175	-114.53042	887.14209	819.66479	-136.67616	975.32654	753.46191	-137.57640
6299	25.19200	897.21729	1418.61401	144.22032	995.44720	1332.78381	305.64636	926.98132	1372.30908	-60.88714	1031.52271	1300.04370	104.35597	999.37109	1120.95642	340.91660	1024.64978	1024.66650	344.09409	959.56995	1003.87799	266.77997	1023.81775	889.52887	311.56616	1112.87476	827.28644	315.90106	1085.94800	819.98254	244.45134	1099.33459	752.12201	328.08423	925.73712	1148.88867	-107.65482	935.10919	1062.76392	-121.53359	875.45239	1037.71655	-39.87229	885.61664	921.81915	-134.22733	957.61969	827.70862	-114.51337	887.27069	819.67694	-136.68213	975.50421	753.11591	-137.35712
6300	25.19600	897.17413	1418.60864	144.19740	995.47754	1332.72937	305.61481	927.00885	1372.32874	-60.89826	1031.48584	1300.02576	104.38292	999.55798	1120.95398	340.64627	1024.81702	1024.47961	343.75839	959.76941	1003.76532	266.35065	1023.50641	889.26440	311.38171	1112.72046	826.71478	315.97357	1085.33228	819.22736	244.53127	1098.36523	751.58197	328.33694	925.77258	1148.90515	-107.67988	935.15210	1062.78882	-121.55631	875.46552	1037.74084	-39.91724	885.70386	921.82971	-134.25510	957.74042	827.74292	-114.49734	887.39380	819.68665	-136.69820	975.64569	753.04895	-137.26941
6301	25.20000	897.12402	1418.60718	144.16791	995.49609	1332.67639	305.58151	927.04443	1372.34448	-60.90800	1031.44946	1300.00232	104.40408	999.59613	1120.72827	340.28003	1024.98413	1024.29468	343.40781	959.93945	1003.68561	265.94275	1023.20349	889.01770	311.18793	1112.23291	826.11731	316.01013	1084.76819	818.50946	244.56935	1097.39673	751.07501	328.58804	925.81403	1148.92114	-107.70937	935.20221	1062.80444	-121.57418	875.47809	1037.75574	-39.97060	885.78662	921.83514	-134.28336	957.85828	827.77393	-114.48508	887.51624	819.68951	-136.71495	975.77039	753.05151	-137.22452
6302	25.20400	897.06830	1418.60510	144.13527	995.49994	1332.63306	305.54611	927.09137	1372.36145	-60.93077	1031.41089	1299.97827	104.42954	999.70984	1120.60059	339.89935	1025.14771	1024.12122	343.04022	960.09357	1003.61334	265.49103	1022.91132	888.78241	310.99139	1111.68481	825.48535	316.01038	1084.22534	817.80634	244.60150	1096.46558	750.59033	328.82996	925.86554	1148.93127	-107.73332	935.26099	1062.81323	-121.58328	875.49414	1037.77124	-40.02420	885.87299	921.84320	-134.31430	957.97504	827.80328	-114.47239	887.63464	819.69379	-136.71811	975.88434	753.07800	-137.20673
6303	25.20800	897.01770	1418.60559	144.10294	995.49066	1332.58813	305.51019	927.14154	1372.38000	-60.95356	1031.36450	1299.96277	104.46028	999.87091	1120.48901	339.51251	1025.30884	1023.95544	342.63736	960.28314	1003.54669	264.97583	1022.63452	888.55792	310.78128	1110.89893	824.87976	316.00909	1083.66357	817.09802	244.63940	1095.59167	750.08868	329.05261	925.92407	1148.94617	-107.76199	935.31512	1062.83008	-121.59361	875.51941	1037.78430	-40.06824	885.96265	921.84973	-134.34415	958.09241	827.83423	-114.46809	887.75275	819.70093	-136.72838	976.00134	753.10864	-137.18559
6304	25.21200	896.96606	1418.60486	144.06526	995.46265	1332.53577	305.47864	927.20105	1372.39038	-60.96862	1031.32263	1299.94409	104.50307	1000.04938	1120.36072	339.13690	1025.47571	1023.79419	342.20639	960.54150	1003.47449	264.40244	1022.36090	888.32916	310.55032	1109.80115	824.24786	315.96338	1083.11450	816.40948	244.66246	1094.76611	749.56927	329.24588	925.98669	1148.95886	-107.78985	935.37653	1062.83362	-121.60760	875.54993	1037.78918	-40.11265	886.05792	921.85504	-134.37840	958.21277	827.86041	-114.46716	887.87152	819.70935	-136.74721	976.12122	753.13306	-137.16785
6305	25.21600	896.91022	1418.60559	144.02357	995.42615	1332.48840	305.45282	927.26904	1372.39746	-60.99287	1031.28186	1299.92834	104.53853	1000.24200	1120.25037	338.77585	1025.65857	1023.65186	341.76141	960.80292	1003.39368	263.83499	1022.09448	888.09650	310.32187	1109.37866	823.67761	315.96588	1082.58240	815.73688	244.68292	1093.94775	749.08435	329.44675	926.05701	1148.96582	-107.81909	935.44348	1062.84412	-121.63180	875.57172	1037.80530	-40.18227	886.15747	921.86322	-134.42159	958.33295	827.88721	-114.46425	888.00049	819.70752	-136.77188	976.24231	753.15564	-137.16118
